<svg width="203" height="62" viewBox="0 0 203 62" fill="none" xmlns="http://www.w3.org/2000/svg">
<path d="M33.6638 36.6951C33.5998 37.0067 33.5357 37.3215 33.4717 37.6331C31.8671 37.9002 30.2562 38.0782 28.6453 38.1768C30.3555 37.7158 32.0305 37.2293 33.6638 36.6951Z" fill="#FF6720"/>
<path d="M69.549 6.05989C64.9565 18.6827 55.5023 30.0783 42.7431 35.0861C42.7431 35.0861 43.2555 32.5837 43.2587 32.5837C53.616 26.6888 60.6842 16.1327 63.5409 4.80714C64.5497 4.26026 67.304 2.6991 67.304 2.6991C67.304 2.6991 68.758 4.84212 69.549 6.05989Z" fill="#FF6720"/>
<path d="M47.8172 10.3969C47.9101 9.93901 48.0542 9.65285 48.5762 9.6147C50.8116 9.43982 53.0439 9.08053 55.2729 9.09961C58.0271 9.11869 59.8494 11.0487 60.2081 13.9739C61.6269 11.0328 62.7414 7.95815 63.5388 4.80721C63.5004 4.77859 63.462 4.75316 63.4235 4.72772C61.2233 3.23651 58.7093 2.83588 56.128 2.72778C50.8533 2.49885 45.7451 3.51631 40.6978 4.89942C40.4287 4.97573 40.1181 5.38271 40.054 5.68477C39.6089 7.84051 31.7208 46.2114 31.7208 46.2114H37.6233C39.2854 46.2114 40.7106 44.9396 41.0469 43.3053C41.0501 43.3116 47.4329 12.2823 47.8172 10.3969Z" fill="#1C0E49"/>
<path d="M67.814 10.2759C63.1126 20.4473 55.2182 29.385 44.9698 34.1353C61.5689 38.8442 72.4931 22.6253 67.814 10.2759Z" fill="#1C0E49"/>
<path d="M29.6634 18.368C17.6088 6.80394 -2.94243 20.0023 0.353065 35.7284C2.40274 45.5118 13.0675 47.6835 21.6985 45.3751C27.175 43.9125 26.5217 38.6376 26.5217 38.6376C19.652 40.2147 6.57896 38.7966 7.65183 33.5853C12.9362 35.0575 20.9907 35.4072 26.6434 32.5234C34.019 28.7588 32.7604 21.821 29.6634 18.368ZM24.6097 24.9592C22.7682 28.7333 12.2444 28.7015 8.45569 27.5982C10.832 22.2439 17.0803 19.0452 22.8098 21.3631C24.5392 22.0658 25.3079 23.5157 24.6097 24.9592Z" fill="#1C0E49"/>
<path d="M104.755 16.403C99.65 14.7401 93.5266 13.977 89.0429 13.977C77.1772 13.977 69.7087 24.5808 70.0578 33.8842C70.1923 37.4548 71.3997 45.5595 82.2662 46.4911C85.2831 46.7486 88.1622 46.3639 90.6827 44.5134C90.7019 44.4975 90.878 44.3417 90.8364 44.5643C90.7467 45.0825 90.545 46.2208 90.545 46.2208C90.545 46.2208 96.2104 46.2208 98.8974 46.2208C99.4034 46.2208 99.4739 45.8742 99.5475 45.5213C101.479 36.1416 103.423 26.781 105.331 17.395C105.453 16.8036 105.335 16.5874 104.755 16.403ZM95.5475 21.9926C94.529 26.8287 93.5426 31.6712 92.5146 36.5105C92.4249 36.927 92.2071 37.3054 91.8869 37.5883C89.4465 39.7441 86.6025 40.4531 83.4255 39.7282C77.3342 38.3387 78.3334 29.7634 80.4663 25.6268C82.4103 21.8623 86.8043 19.7351 91.2784 20.3106C95.7556 20.883 95.6627 21.4298 95.5475 21.9926Z" fill="#1C0E49"/>
<path d="M202.576 25.293C201.952 17.891 196.065 13.977 189 13.977C174.185 13.977 169.292 26.2659 169.743 34.8062C170.175 43.0063 177.481 46.8249 184.84 46.1413C191.678 45.7375 196.815 42.6375 199.992 36.5645C201.83 33.0448 203.022 29.3342 202.576 25.293ZM182.144 39.2004C175.623 37.8681 177.833 29.3056 179.194 26.781C182.48 20.6826 186.957 20.4028 189.503 20.8035C192.866 21.3281 194.775 23.7128 194.586 27.7413C194.301 33.8396 189.731 40.7488 182.144 39.2004Z" fill="#1C0E49"/>
<path d="M103.506 60.0265L104.611 54.6467C104.777 54.0172 105.376 53.5689 106.033 53.5498C109.344 53.4576 110.478 52.8853 112.134 51.0983C113.399 49.5022 114.356 48.2208 115.42 46.7455C115.561 46.5516 115.573 46.205 115.522 45.9506C113.729 36.9112 109.203 13.977 109.203 13.977C109.203 13.977 117.453 13.9039 117.972 17.1916C118.968 23.4871 121.325 36.2148 121.437 36.7172C121.729 36.218 129.444 23.0674 133.053 16.7623C134.824 13.6686 141.572 13.977 143.801 13.977C137.149 25.0133 124.23 46.4149 122.216 49.7407C116.983 58.37 112.377 60.0933 107.554 60.0329C106.241 60.017 103.506 60.0265 103.506 60.0265Z" fill="#1C0E49"/>
<path d="M164.632 37.3277C164.164 39.5947 163.315 43.7186 163.287 43.8648C163.239 44.1065 163.136 44.3735 162.813 44.4944C158.358 46.1477 153.602 46.9267 149.275 45.4037C135.273 40.4818 139.033 18.1454 153.656 14.5907C160.837 12.8451 167.998 15.3728 168.347 15.4809C168.753 15.6081 169.006 16.0151 168.923 16.4284C168.67 17.6716 167.866 21.6079 167.831 21.751C163.78 20.4506 159.523 19.5094 155.386 20.953C147.161 23.8273 145.374 37.8364 153.554 39.477C157.474 40.2656 161.061 38.8856 164.632 37.3277Z" fill="#1C0E49"/>
</svg>
